<?xml version="1.0" encoding="UTF-8"?>
<svg version="1.1" xmlns="http://www.w3.org/2000/svg" width="128" height="128">
<path d="M0 0 C42.24 0 84.48 0 128 0 C128 42.24 128 84.48 128 128 C85.76 128 43.52 128 0 128 C0 85.76 0 43.52 0 0 Z " fill="#515151" transform="translate(0,0)"/>
<path d="M0 0 C0.33 0.66 0.66 1.32 1 2 C-0.32 4.97 -1.64 7.94 -3 11 C27.36 11.33 57.72 11.66 89 12 C87.68 8.7 86.36 5.4 85 2 C85.33 1.34 85.66 0.68 86 0 C86.83819158 1.62249941 87.6704116 3.24808497 88.5 4.875 C89.19609375 6.23238281 89.19609375 6.23238281 89.90625 7.6171875 C91 10 91 10 91 12 C95.95 12 100.9 12 106 12 C106 30.15 106 48.3 106 67 C63.76 67 21.52 67 -22 67 C-22 48.85 -22 30.7 -22 12 C-16.39 12 -10.78 12 -5 12 C-4.54625 10.576875 -4.0925 9.15375 -3.625 7.6875 C-2.66055791 4.6626589 -1.79068573 2.6860286 0 0 Z " fill="#371800" transform="translate(22,61)"/>
<path d="M0 0 C10.19105288 1.75944187 20.05966567 1.9008353 30.1875 -0.25 C34.68571139 -1.02096348 37.10462163 -1.01813576 41 1.4375 C42.45803303 2.61730287 43.87405493 3.85041368 45.25 5.125 C46.02214844 5.80433594 46.79429688 6.48367187 47.58984375 7.18359375 C54.71305722 13.83271648 59.63347918 20.42587505 61.25 30.125 C30.56 30.125 -0.13 30.125 -31.75 30.125 C-26.11249667 16.594992 -26.11249667 16.594992 -22.4375 12.8125 C-21.6640625 12.01199219 -20.890625 11.21148437 -20.09375 10.38671875 C-7.69167516 -1.58128347 -7.69167516 -1.58128347 0 0 Z " fill="#5C5C5C" transform="translate(49.75,42.875)"/>
<path d="M0 0 C31.68 0 63.36 0 96 0 C97.56364822 7.03641701 98.21560191 11.20853974 98 18 C97.17935059 17.93433838 96.35870117 17.86867676 95.51318359 17.80102539 C86.21766703 17.09283891 76.94160643 16.70616391 67.625 16.4375 C66.19530455 16.39414145 64.76561697 16.35052285 63.3359375 16.30664062 C59.89070994 16.20144498 56.44539113 16.09971307 53 16 C53 15.34 53 14.68 53 14 C51.700625 14.144375 50.40125 14.28875 49.0625 14.4375 C48.33160156 14.51871094 47.60070312 14.59992188 46.84765625 14.68359375 C44.98859771 14.81886614 44.98859771 14.81886614 44 16 C41.48143825 16.15986946 38.98635826 16.25941894 36.46484375 16.31640625 C35.79747192 16.33505737 35.1301001 16.3537085 34.44250488 16.3729248 C31.94097583 16.44140741 29.43922118 16.50143787 26.9375 16.5625 C21.348125 16.706875 15.75875 16.85125 10 17 C21.22 17 32.44 17 44 17 C44.495 17.99 44.495 17.99 45 19 C47.64 19 50.28 19 53 19 C53.33 18.34 53.66 17.68 54 17 C63.63378414 16.88500788 73.24715203 17.00066317 82.875 17.375 C83.83164551 17.40585693 84.78829102 17.43671387 85.77392578 17.46850586 C87.11946533 17.52663452 87.11946533 17.52663452 88.4921875 17.5859375 C89.68884033 17.63306885 89.68884033 17.63306885 90.90966797 17.68115234 C93 18 93 18 96 20 C87.06591832 21.2986821 78.12601623 21.14515324 69.12109375 21.1328125 C67.38192227 21.13348727 65.64275088 21.13445873 63.90357971 21.13571167 C60.27172949 21.13718012 56.63990398 21.13506135 53.00805664 21.13037109 C48.36925257 21.12467007 43.73050633 21.12796062 39.09170437 21.13394356 C35.50478179 21.13756861 31.91787278 21.13640173 28.33094978 21.13381577 C26.62104345 21.1331521 24.91113586 21.1339552 23.201231 21.13629532 C20.80656579 21.13885437 18.41199242 21.13493595 16.01733398 21.12939453 C15.32152725 21.13141876 14.62572052 21.13344299 13.90882874 21.13552856 C1.08094598 21.08094598 1.08094598 21.08094598 -2 18 C-2.1875 15.4375 -2.1875 15.4375 -2 13 C-1.67 12.67 -1.34 12.34 -1 12 C-0.9278635 9.73671744 -1.00351911 7.48995407 -1.0625 5.2265625 C-1 3 -1 3 0 0 Z " fill="#462A13" transform="translate(17,76)"/>
<path d="M0 0 C0.33 0.66 0.66 1.32 1 2 C-0.32 4.97 -1.64 7.94 -3 11 C27.36 11.33 57.72 11.66 89 12 C87.68 8.7 86.36 5.4 85 2 C85.33 1.34 85.66 0.68 86 0 C86.83819158 1.62249941 87.6704116 3.24808497 88.5 4.875 C89.19609375 6.23238281 89.19609375 6.23238281 89.90625 7.6171875 C91 10 91 10 91 12 C95.95 12 100.9 12 106 12 C106 12.99 106 13.98 106 15 C101.71 15.33 97.42 15.66 93 16 C93.495 17.98 93.495 17.98 94 20 C94.09401394 22.57432301 94.13968883 25.11450645 94.125 27.6875 C94.12886719 28.37650391 94.13273437 29.06550781 94.13671875 29.77539062 C94.12669335 34.87330665 94.12669335 34.87330665 93 36 C77.66035399 38.19895457 62.2560376 38.31277911 46.7890625 38.26074219 C43.00504541 38.2500143 39.22150288 38.26070664 35.4375 38.2734375 C21.22596766 38.28131632 7.09017374 38.0198414 -7 36 C-8 35 -8 35 -8.09765625 32.27734375 C-8.08605469 31.17519531 -8.07445312 30.07304688 -8.0625 28.9375 C-8.05347656 27.83277344 -8.04445313 26.72804688 -8.03515625 25.58984375 C-8.02355469 24.73519531 -8.01195312 23.88054687 -8 23 C-7.67 23 -7.34 23 -7 23 C-7 26.3 -7 29.6 -7 33 C-0.97897276 34.50525681 4.64055075 35.14712049 10.83789062 35.12939453 C11.5996611 35.13114685 12.36143158 35.13289917 13.14628601 35.13470459 C15.64963092 35.13908468 18.15290445 35.13619869 20.65625 35.1328125 C22.40450046 35.13348664 24.15275083 35.13445759 25.90100098 35.13571167 C29.55917252 35.13718344 33.21731959 35.13505083 36.87548828 35.13037109 C41.55605263 35.12467413 46.23655964 35.12795592 50.91712189 35.13394356 C54.52541534 35.13756323 58.13369527 35.13640411 61.74198914 35.13381577 C63.46750394 35.13315039 65.19301998 35.13396128 66.91853333 35.13629532 C69.33309158 35.13884492 71.74755794 35.13494878 74.16210938 35.12939453 C75.223675 35.13243088 75.223675 35.13243088 76.3066864 35.13552856 C80.39693249 35.11816614 83.90382884 34.68269519 88 34 C75.13 33.34 62.26 32.68 49 32 C48.67 32.99 48.34 33.98 48 35 C45.36 35 42.72 35 40 35 C39.67 34.01 39.34 33.02 39 32 C38.39752441 32.03029297 37.79504883 32.06058594 37.17431641 32.09179688 C24.10488634 32.73671087 11.08533271 33.14702621 -2 33 C-2 32.67 -2 32.34 -2 32 C3.04147222 31.18784044 7.97819456 30.81718225 13.0859375 30.71875 C14.60807329 30.68100478 16.1302087 30.64324393 17.65234375 30.60546875 C20.02910697 30.55157501 22.40590024 30.49932948 24.78271484 30.44775391 C27.09223605 30.39622109 29.40156381 30.33896303 31.7109375 30.28125 C32.78581924 30.26088684 32.78581924 30.26088684 33.88241577 30.2401123 C37.2277122 30.44057637 37.2277122 30.44057637 40 29 C42.67058851 28.85884839 45.32432238 28.95752893 48 29 C48 29.66 48 30.32 48 31 C48.88147705 30.99476318 49.7629541 30.98952637 50.67114258 30.98413086 C53.99422888 30.96691731 57.31726665 30.95446737 60.64038086 30.94506836 C62.06877396 30.94009138 63.49716212 30.93330738 64.92553711 30.92456055 C86.38972045 30.79657348 86.38972045 30.79657348 93 33 C92.01 24.09 92.01 24.09 91 15 C88.14537109 15.03552979 85.29074219 15.07105957 82.34960938 15.10766602 C72.8622363 15.2248751 63.37479434 15.33549245 53.88730621 15.4429636 C48.14146194 15.5082492 42.39566027 15.57567678 36.64990234 15.64819336 C31.09321682 15.71824164 25.53649027 15.78241026 19.97969055 15.84269524 C17.87166426 15.86656117 15.76365986 15.89245904 13.65568542 15.92053413 C1.71341937 16.07812107 -10.09124697 15.98393574 -22 15 C-22 14.01 -22 13.02 -22 12 C-16.39 12 -10.78 12 -5 12 C-4.54625 10.576875 -4.0925 9.15375 -3.625 7.6875 C-2.66055791 4.6626589 -1.79068573 2.6860286 0 0 Z " fill="#090501" transform="translate(22,61)"/>
<path d="M0 0 C0.33 0.66 0.66 1.32 1 2 C-0.32 4.97 -1.64 7.94 -3 11 C27.36 11.33 57.72 11.66 89 12 C87.68 8.7 86.36 5.4 85 2 C85.33 1.34 85.66 0.68 86 0 C86.84584998 1.55575978 87.67618399 3.1199612 88.5 4.6875 C89.19609375 5.99267578 89.19609375 5.99267578 89.90625 7.32421875 C91.05945711 10.14545757 91.08806831 11.99466909 91 15 C78.62917984 15.15466165 66.25829994 15.30282904 53.88730621 15.4429636 C48.14146194 15.5082492 42.39566027 15.57567678 36.64990234 15.64819336 C31.09321682 15.71824164 25.53649027 15.78241026 19.97969055 15.84269524 C17.87166426 15.86656117 15.76365986 15.89245904 13.65568542 15.92053413 C1.71341937 16.07812107 -10.09124697 15.98393574 -22 15 C-22 14.01 -22 13.02 -22 12 C-16.39 12 -10.78 12 -5 12 C-4.54625 10.576875 -4.0925 9.15375 -3.625 7.6875 C-2.66055791 4.6626589 -1.79068573 2.6860286 0 0 Z " fill="#191715" transform="translate(22,61)"/>
<path d="M0 0 C1.0219043 0.01229645 1.0219043 0.01229645 2.06445312 0.02484131 C12.67593731 0.17489199 21.03435268 1.22250533 29.5625 7.875 C30.62984375 8.62716797 30.62984375 8.62716797 31.71875 9.39453125 C36.17488082 12.82159796 39.381317 17.28384212 42.5625 21.875 C42.2325 22.535 41.9025 23.195 41.5625 23.875 C40.52802734 22.68003906 40.52802734 22.68003906 39.47265625 21.4609375 C31.72965984 12.01022795 31.72965984 12.01022795 21.5625 5.875 C18.30410188 5.98082078 15.34054161 6.53386397 12.15234375 7.2109375 C8.26204175 7.93057987 4.50446214 8.13254262 0.5625 8.125 C-0.44804443 8.12693359 -0.44804443 8.12693359 -1.47900391 8.12890625 C-5.93160697 8.06877947 -10.02998234 7.42274587 -14.375 6.5 C-18.87321139 5.72903652 -21.29212163 5.73186424 -25.1875 8.1875 C-29.96393602 12.00687648 -34.25333387 16.42375943 -38.4375 20.875 C-38.4375 16.82213967 -37.0502763 15.99205554 -34.25 13.125 C-33.47269531 12.30515625 -32.69539063 11.4853125 -31.89453125 10.640625 C-22.18947662 2.25462769 -12.62135972 -0.30810238 0 0 Z " fill="#131313" transform="translate(64.4375,37.125)"/>
<path d="M0 0 C0.91587891 -0.00773437 1.83175781 -0.01546875 2.77539062 -0.0234375 C8.09510151 -0.00816195 12.53133621 0.50604776 17.5625 2.25 C17.5625 2.58 17.5625 2.91 17.5625 3.25 C11.29925434 4.41654041 5.22783354 4.43387188 -1.125 4.4375 C-2.83526367 4.45586914 -2.83526367 4.45586914 -4.58007812 4.47460938 C-6.21686523 4.47750977 -6.21686523 4.47750977 -7.88671875 4.48046875 C-8.88018311 4.48457764 -9.87364746 4.48868652 -10.8972168 4.49291992 C-13.4375 4.25 -13.4375 4.25 -16.4375 2.25 C-10.92292188 -0.06226903 -5.87239525 -0.04938244 0 0 Z " fill="#606060" transform="translate(64.4375,38.75)"/>
<path d="M0 0 C0.33 0 0.66 0 1 0 C1 3.3 1 6.6 1 10 C6.52181926 11.38045481 11.68123094 12.12401758 17.37255859 12.20532227 C18.61339203 12.22526749 19.85422546 12.24521271 21.13265991 12.26576233 C22.47125121 12.28274121 23.80984377 12.29962021 25.1484375 12.31640625 C26.52992335 12.33700178 27.91140327 12.3579989 29.2928772 12.37937927 C32.91281298 12.43433178 36.53280308 12.48385824 40.15283203 12.53222656 C43.85323875 12.58263861 47.55356747 12.63822138 51.25390625 12.69335938 C58.50253795 12.80061241 65.75123491 12.902129 73 13 C73 13.33 73 13.66 73 14 C66.12173984 14.19706136 59.24315126 14.3735581 52.36401367 14.53710938 C50.03381961 14.59477555 47.70372854 14.65680289 45.3737793 14.72363281 C30.46973024 15.14753595 15.78627509 15.16281171 1 13 C0 12 0 12 -0.09765625 9.27734375 C-0.08605469 8.17519531 -0.07445312 7.07304688 -0.0625 5.9375 C-0.05347656 4.83277344 -0.04445313 3.72804688 -0.03515625 2.58984375 C-0.02355469 1.73519531 -0.01195312 0.88054687 0 0 Z " fill="#150C05" transform="translate(14,84)"/>
<path d="M0 0 C0.62994873 0.16298584 1.25989746 0.32597168 1.90893555 0.49389648 C6.10803658 1.18142009 10.20951909 1.1228252 14.45703125 1.09765625 C15.35999435 1.0962413 16.26295746 1.09482635 17.19328308 1.09336853 C20.06638963 1.08778823 22.93941716 1.07523934 25.8125 1.0625 C27.76497283 1.05748245 29.71744689 1.05291999 31.66992188 1.04882812 C36.44664485 1.03782525 41.22330904 1.02057418 46 1 C46 1.33 46 1.66 46 2 C38.41 2.33 30.82 2.66 23 3 C23 3.66 23 4.32 23 5 C7.36411546 5.21451671 7.36411546 5.21451671 2 4 C0.5 1.9375 0.5 1.9375 0 0 Z " fill="#402612" transform="translate(15,92)"/>
<path d="M0 0 C0.33 0.66 0.66 1.32 1 2 C0.22265625 4.27734375 0.22265625 4.27734375 -0.9375 6.9375 C-2.24374985 9.94408863 -3 11.69522894 -3 15 C-6.82810821 16.27603607 -10.23475107 15.86283987 -14.1875 15.5625 C-14.93708984 15.51029297 -15.68667969 15.45808594 -16.45898438 15.40429688 C-18.30637082 15.27486216 -20.15324371 15.13813482 -22 15 C-22 14.01 -22 13.02 -22 12 C-16.39 12 -10.78 12 -5 12 C-4.54625 10.576875 -4.0925 9.15375 -3.625 7.6875 C-2.66055791 4.6626589 -1.79068573 2.6860286 0 0 Z " fill="#070707" transform="translate(22,61)"/>
<path d="M0 0 C5.28 0.33 10.56 0.66 16 1 C16 1.99 16 2.98 16 4 C11.05 4 6.1 4 1 4 C0.67 2.68 0.34 1.36 0 0 Z " fill="#020100" transform="translate(112,72)"/>
<path d="M0 0 C1.0209375 0.2165625 1.0209375 0.2165625 2.0625 0.4375 C5.11080863 1.06574961 5.11080863 1.06574961 8.6875 1.375 C9.780625 1.58125 10.87375 1.7875 12 2 C12.99 3.485 12.99 3.485 14 5 C12.04081032 4.94008594 10.08248471 4.85132862 8.125 4.75 C7.03445312 4.70359375 5.94390625 4.6571875 4.8203125 4.609375 C2 4 2 4 0.6171875 1.953125 C0.41351563 1.30859375 0.20984375 0.6640625 0 0 Z " fill="#2E1806" transform="translate(15,92)"/>
<path d="M0 0 C0.66 0 1.32 0 2 0 C2 3.63 2 7.26 2 11 C1.01 11.495 1.01 11.495 0 12 C-1.28571429 3.42857143 -1.28571429 3.42857143 0 0 Z " fill="#261202" transform="translate(15,77)"/>
<path d="M0 0 C1.32 0 2.64 0 4 0 C4 0.66 4 1.32 4 2 C5.98 2 7.96 2 10 2 C10 2.33 10 2.66 10 3 C8.741875 3.04125 7.48375 3.0825 6.1875 3.125 C5.47980469 3.14820313 4.77210937 3.17140625 4.04296875 3.1953125 C2 3 2 3 -1 1 C-0.67 0.67 -0.34 0.34 0 0 Z " fill="#545454" transform="translate(49,40)"/>
</svg>
